cover 
http://img408.imageshack.us/img408/3372/torrentcover.jpg

National Lampoon's Animal House is a 1978 American comedy film directed by John Landis. The film is about a misfit group of fraternity men who challenge their college's administrators. The screenplay was adapted by Douglas Kenney, Chris Miller and Harold Ramis from stories written by Miller and published in National Lampoon magazine based on Miller's experiences in the Alpha Delta Phi fraternity at Dartmouth College (the character Pinto is a thinly veiled version of Miller, whose actual fraternity nickname was, in fact, "Pinto" Ramis' experiences in the Zeta Beta Tau fraternity at Washington University in St. Louis, and producer Ivan Reitman's experiences at McMaster University in Hamilton, Ontario.

 
http://www.imdb.com/title/tt0077975/

John Belushi as John "Bluto" Blutarsky
Tim Matheson as Eric "Otter" Stratton
Peter Riegert as Donald "Boon" Schoenstein
Thomas Hulce as Lawrence "Pinto" Kroger
Stephen Furst as Kent "Flounder" Dorfman
Bruce McGill as Daniel Simpson Day, "D-Day
Donald Sutherland as Professor Dave Jennings

General
Complete name : Animal House - 1978 (Dvdrip,Xvid)\Animal House.avi
Format : AVI
Format/Info : Audio Video Interleave
File size : 700 MiB
Duration : 1h 44mn
Overall bit rate : 939 Kbps
Writing application : VirtualDubMod 1.5.4.1 (build 2178/release)
Writing library : VirtualDubMod build 2178/release

Video
ID : 0
Format : MPEG-4 Visual
Format profile : Advanced Simple@L5
Format settings, BVOP : Yes
Format settings, QPel : No
Format settings, GMC : No warppoints
Format settings, Matrix : Default (H.263)
Muxing mode : Packed bitstream
Codec ID : XVID
Codec ID/Hint : XviD
Duration : 1h 44mn
Bit rate : 817 Kbps
Width : 672 pixels
Height : 368 pixels
Display aspect ratio : 16:9
Frame rate : 25.000 fps
Color space : YUV
Chroma subsampling : 4:2:0
Bit depth : 8 bits
Scan type : Progressive
Bits/(Pixel*Frame) : 0.132
Stream size : 609 MiB (87%)
Writing library : XviD 1.2.1 (UTC 2008-12-04)

Audio
ID : 1
Format : MPEG Audio
Format version : Version 1
Format profile : Layer 3
Mode : Joint stereo
Mode extension : MS Stereo
Codec ID : 55
Codec ID/Hint : MP3
Duration : 1h 44mn
Bit rate mode : Variable
Bit rate : 109 Kbps
Nominal bit rate : 128 Kbps
Channel(s) : 2 channels
Sampling rate : 48.0 KHz
Stream size : 81.6 MiB (12%)
Alignment : Aligned on interleaves
Interleave, duration : 24 ms (0.60 video frame)
Interleave, preload duration : 168 ms
Writing library : LAME3.98r
Encoding settings : -m j -V 4 -q 2 -lowpass 17 --abr 128
Language : English

screens
 
http://img440.imageshack.us/img440/9181/22641511.png 
http://img21.imageshack.us/img21/9189/75173853.png 
http://img178.imageshack.us/img178/9540/24595531.png 
http://img199.imageshack.us/img199/4007/38344148.png 
http://img812.imageshack.us/img812/7572/66169532.png 
http://img695.imageshack.us/img695/4820/53720537.png